<svg width="24" height="24" version="1.1" viewBox="0 0 1200 1200" xmlns="http://www.w3.org/2000/svg">
<path d="m1175.3 145.5c-0.14062-0.14062-0.19922-0.30078-0.33984-0.44141-0.14063-0.14062-0.30078-0.19922-0.42188-0.32031-9.4805-9.3281-21.789-15.246-35-16.816-85.801-10-304.42-24-508.66 53.141v-0.003906c-52.449-61.391-110.6-117.67-173.68-168.08-10.574-8.4219-23.691-13.004-37.211-13.004-13.516 0-26.633 4.582-37.207 13.004-89.801 71.02-382.78 329.02-382.78 662.62 0 289.16 188.42 524.4 420 524.4 96.645-1.5 188.83-40.918 256.68-109.76 120.73-23.148 231.5-82.637 317.48-170.5 235.64-235.64 211.08-625.4 197.84-739.32-1.5469-13.168-7.4219-25.453-16.699-34.922zm-88.66 17.699c-120.48 46.41-234.55 108.02-339.42 183.32-26.27-46.547-56.195-90.934-89.5-132.74 161.52-57.781 330.74-57.781 428.92-50.582zm43.141 27.039c-64.543 178.84-162.93 343.56-289.78 485.18-1.4883-102.2-26.828-202.64-74-293.32 111.71-80.621 234.16-145.2 363.78-191.86zm-1089.8 485.36c0-278.86 219.5-504.26 330.16-600.14-84.895 190.29-129.22 396.18-130.16 604.54 0 185.28 34.121 378.98 98.602 468.7-170.6-47.66-298.6-241.62-298.6-473.1zm380 484.4c-66.219 0-140-197.12-140-480 1.6094-213.04 49.375-423.2 140-616 90.625 192.8 138.39 402.96 140 616 0 282.88-73.781 480-140 480zm81.398-11.301c64.48-89.719 98.602-283.42 98.602-468.7-0.9375-208.36-45.258-414.23-130.14-604.52 110.68 95.879 330.14 321.28 330.14 600.12 0 231.48-128 425.44-298.6 473.1zm464.48-257.24c-67.5 68.336-150.98 118.76-242.88 146.7 65.422-87.723 104.92-192.04 114-301.1 139.15-144.73 247.89-315.88 319.8-503.34 10.379 146.28 6 460.84-190.92 657.74z" />
</svg>